<svg id="e93847ea-2b21-4475-a44a-14d34f191d0f" data-name="Layer 1" xmlns="http://www.w3.org/2000/svg" viewBox="0 0 300 36">
  <title>inline--black</title>
  <g>
    <g>
      <path d="M128.2,29.1a2.37539,2.37539,0,0,0,1.2-.3l4.5-2.6a4.55114,4.55114,0,0,1,3-.6,65.3664,65.3664,0,0,1,10.5,2,.481.481,0,0,0,.6-.2,3.58114,3.58114,0,0,0,.6-1.1,3.42194,3.42194,0,0,0,.2-1.3.4575.4575,0,0,0-.4-.5,76.31621,76.31621,0,0,0-20.3-2.7,72.074,72.074,0,0,0-20.3,2.7.66443.66443,0,0,0-.4.5,3.69119,3.69119,0,0,0,.2,1.3,3.58074,3.58074,0,0,0,.6,1.1c.2.2.4.3.6.2a65.36614,65.36614,0,0,1,10.5-2,5.08749,5.08749,0,0,1,3,.6l4.5,2.6A4.4081,4.4081,0,0,0,128.2,29.1Z"/>
      <path d="M120.6,14.4a1.54832,1.54832,0,0,0,1.1.8,1.8066,1.8066,0,0,0,1.4-.2,1.4786,1.4786,0,0,0,.8-1.1,1.75641,1.75641,0,0,0-.2-1.4l-4.1-7.1a.71276.71276,0,0,0-.6-.3,3.06885,3.06885,0,0,0-1.3.5,3.5277,3.5277,0,0,0-1.1.9.87822.87822,0,0,0-.1.7Z"/>
      <path d="M116.9,19.4a2.19926,2.19926,0,0,0,1.4.2,2.09686,2.09686,0,0,0,1.1-.8,2.19926,2.19926,0,0,0,.2-1.4,1.77923,1.77923,0,0,0-.8-1.1l-7.1-4.1a.616.616,0,0,0-.7.1,3.52788,3.52788,0,0,0-.9,1.1,3.06886,3.06886,0,0,0-.5,1.3.60467.60467,0,0,0,.3.6Z"/>
      <path d="M130,11.9a2.10617,2.10617,0,0,1-.5,1.3,1.901,1.901,0,0,1-1.3.5,2.10622,2.10622,0,0,1-1.3-.5,1.901,1.901,0,0,1-.5-1.3V3.7a.6752.6752,0,0,1,.4-.6,5,5,0,0,1,2.8,0,.6752.6752,0,0,1,.4.6v8.2Z"/>
      <path d="M135.8,14.4a1.5483,1.5483,0,0,1-1.1.8,1.8066,1.8066,0,0,1-1.4-.2,1.54837,1.54837,0,0,1-.8-1.1,1.75637,1.75637,0,0,1,.2-1.4l4.1-7.1a.71276.71276,0,0,1,.6-.3,3.06886,3.06886,0,0,1,1.3.5,3.52805,3.52805,0,0,1,1.1.9.87822.87822,0,0,1,.1.7Z"/>
      <path d="M139.5,19.4a2.19922,2.19922,0,0,1-1.4.2,2.09692,2.09692,0,0,1-1.1-.8,2.19926,2.19926,0,0,1-.2-1.4,2.09691,2.09691,0,0,1,.8-1.1l7.1-4.1a.616.616,0,0,1,.7.1,3.52759,3.52759,0,0,1,.9,1.1,3.06873,3.06873,0,0,1,.5,1.3.60467.60467,0,0,1-.3.6Z"/>
    </g>
    <g>
      <path d="M184.6,13.8H188c.1,0,.2.1.3.2l3.4,8.7L195,14c0-.1.2-.2.3-.2h3.3c.2,0,.4.2.3.4l-8.3,19c0,.1-.2.2-.3.2h-2.9c-.2,0-.4-.2-.3-.4l2.8-6.6-5.5-12.2C184.2,14.1,184.3,13.8,184.6,13.8Z"/>
      <path d="M234.7,15.8V14.2a.26517.26517,0,0,1,.3-.3h3a.26517.26517,0,0,1,.3.3V27a.26517.26517,0,0,1-.3.3h-3a.26517.26517,0,0,1-.3-.3V25.3a5.06194,5.06194,0,0,1-4.3,2.3c-4.4,0-6.7-3.4-6.7-7.1,0-4.9,3.4-7,6.6-7A5.11054,5.11054,0,0,1,234.7,15.8Zm-7.4,4.7c0,2.3,1.4,4.1,3.7,4.1a3.59737,3.59737,0,0,0,3.8-3.9c0-2.4-1.4-4.2-3.9-4.2C228.7,16.5,227.3,18.3,227.3,20.5Z"/>
      <path d="M241.1,27V14.1a.26517.26517,0,0,1,.3-.3h3a.26517.26517,0,0,1,.3.3v1.8a4.64952,4.64952,0,0,1,4.3-2.3c2.3,0,4.9,1.1,4.9,6.4v7a.26517.26517,0,0,1-.3.3h-3a.26517.26517,0,0,1-.3-.3V19.9c0-1.3-.3-3.4-2.6-3.4s-3,2-3,3.8V27a.26517.26517,0,0,1-.3.3h-3A.26515.26515,0,0,1,241.1,27Z"/>
      <path d="M256.5,27V14.1a.26517.26517,0,0,1,.3-.3h3a.26515.26515,0,0,1,.3.3v1.8a4.64952,4.64952,0,0,1,4.3-2.3c2.3,0,4.9,1.1,4.9,6.4v7a.26517.26517,0,0,1-.3.3h-3a.26515.26515,0,0,1-.3-.3V19.9c0-1.3-.3-3.4-2.6-3.4s-3,2-3,3.8V27a.26517.26517,0,0,1-.3.3h-3A.26517.26517,0,0,1,256.5,27Z"/>
      <path d="M288,13.8h2.9a.26515.26515,0,0,1,.3.3v2.7a3.81428,3.81428,0,0,1,4.5-3.2c.1,0,.2.2.2.3v2.9c0,.2-.2.3-.4.3-3.1-.6-4.3,1.1-4.3,3.4V27a.26516.26516,0,0,1-.3.3h-3a.26515.26515,0,0,1-.3-.3V14.1C287.7,14,287.9,13.8,288,13.8Z"/>
      <path d="M164.7,16.8c-.9-.3-1.4-.5-2.2-.8s-2.1-1-2.1-2.2.8-2,2.5-2a2.99867,2.99867,0,0,1,2.9,1.9.24736.24736,0,0,0,.4.1l2.5-1.4c.1-.1.2-.2.1-.4a6.14219,6.14219,0,0,0-5.9-3.6c-3.8,0-6.2,2.3-6.2,5.3s2,4.5,4.6,5.4c1,.3,1.4.5,2.2.7,1.6.5,2.3,1.2,2.3,2.2s-.6,2.1-3.1,2.1a3.449,3.449,0,0,1-3.5-2.3.24737.24737,0,0,0-.4-.1l-2.6,1.5c-.1.1-.2.2-.1.4,1,2.5,3.7,3.9,6.8,3.9,3.6,0,6.6-1.8,6.6-5.5C169.5,18.4,165.6,17.1,164.7,16.8Z"/>
      <path d="M184.5,23.8a.24736.24736,0,0,0-.4-.1,2.32676,2.32676,0,0,1-3.6-.7c-.9-1.4-1.9-3-1.9-3l4.5-5.7a.30021.30021,0,0,0-.2-.5h-3.6c-.1,0-.2,0-.2.1l-3.9,5.4V8.5a.26517.26517,0,0,0-.3-.3h-3a.26517.26517,0,0,0-.3.3V27a.26517.26517,0,0,0,.3.3h3a.26517.26517,0,0,0,.3-.3V21s2,3.2,2.8,4.4a4.918,4.918,0,0,0,7.7.8c.1-.1.1-.2.1-.4Z"/>
      <path d="M206,19.5a16.45378,16.45378,0,0,0-2-.7c-.7-.2-1.4-.7-1.4-1.2,0-.6.5-1.2,1.6-1.2a2.03569,2.03569,0,0,1,1.9,1,.24736.24736,0,0,0,.4.1l2.1-1.2c.1-.1.2-.3.1-.4-.6-1-1.7-2.3-4.5-2.3-3.4,0-5.1,2-5.1,4.1s1.8,3.2,3.4,3.8c1.8.7,1.9.8,2.2.9.6.2,1.2.6,1.2,1.2,0,.7-.7,1.2-1.9,1.2a2.7781,2.7781,0,0,1-2.8-1.7.24737.24737,0,0,0-.4-.1l-2.1,1.2c-.1.1-.2.2-.1.4.6,1.6,2.5,3,5.4,3,3.2,0,5.4-1.7,5.4-4.1S207.8,20.2,206,19.5Z"/>
      <path d="M218.2,16.8a5.45575,5.45575,0,0,1,3.3,1.1c.1.1.4.1.4-.1l1.2-2.1c.1-.1,0-.3-.1-.4a8.55112,8.55112,0,0,0-5-1.7,7.6302,7.6302,0,0,0-5.5,2,6.94346,6.94346,0,0,0-2.1,5.1,6.67692,6.67692,0,0,0,2.1,5,7.73173,7.73173,0,0,0,5.5,2,8.47383,8.47383,0,0,0,5-1.7c.1-.1.2-.3.1-.4l-1.2-2.1a.24736.24736,0,0,0-.4-.1,5.66194,5.66194,0,0,1-3.3,1.1c-1.5,0-4.1-.8-4.1-3.8A3.89023,3.89023,0,0,1,218.2,16.8Z"/>
      <path d="M279.1,24.6a5.71012,5.71012,0,0,1-3.2-.9,2.76363,2.76363,0,0,1-1.2-2.2h10.7a.26515.26515,0,0,0,.3-.3c-.1-3.2-1.1-4.7-2.1-5.7a7.292,7.292,0,0,0-5.1-2,6.98411,6.98411,0,0,0-5.3,2.1,6.65117,6.65117,0,0,0-2.1,5,6.65117,6.65117,0,0,0,2.1,5,7.9074,7.9074,0,0,0,5.7,2,8.06927,8.06927,0,0,0,6.2-2.6.34826.34826,0,0,0-.1-.5l-2.1-1.2a.30415.30415,0,0,0-.4,0A5.04538,5.04538,0,0,1,279.1,24.6Zm-.6-8.2a3.29923,3.29923,0,0,1,3.5,2.9h-7.2A3.61181,3.61181,0,0,1,278.5,16.4Z"/>
    </g>
  </g>
  <g>
    <path d="M2.4,27.3,4.8,15.1a.21508.21508,0,0,1,.2-.2H9.3a4.551,4.551,0,0,1,2.7.8,2.65808,2.65808,0,0,1,1,2.1,3.87053,3.87053,0,0,1-1.3,3.1,5.26693,5.26693,0,0,1-3.7,1H5L4,27.3a.21508.21508,0,0,1-.2.2H2.5C2.4,27.5,2.4,27.4,2.4,27.3Zm2.9-6.8H8.6a3.17336,3.17336,0,0,0,2-.6,2.2262,2.2262,0,0,0,.7-1.9,1.656,1.656,0,0,0-.5-1.2,2.07574,2.07574,0,0,0-1.5-.4H6.1Z"/>
    <path d="M13.3,24a5.6775,5.6775,0,0,1,1.5-4,5.06631,5.06631,0,0,1,3.9-1.7A3.6068,3.6068,0,0,1,22.6,22a5.6775,5.6775,0,0,1-1.5,4,4.987,4.987,0,0,1-3.9,1.6,3.705,3.705,0,0,1-2.8-1A3.46677,3.46677,0,0,1,13.3,24Zm1.6-.2a2.13948,2.13948,0,0,0,.7,1.8,2.875,2.875,0,0,0,1.8.7,3.42406,3.42406,0,0,0,2.7-1.2,4.42644,4.42644,0,0,0,1.1-3,2.13948,2.13948,0,0,0-.7-1.8,2.40988,2.40988,0,0,0-1.8-.7A3.42406,3.42406,0,0,0,16,20.8,4.61739,4.61739,0,0,0,14.9,23.8Z"/>
    <path d="M24.6,18.7c0-.2.1-.3.2-.3H26a.21508.21508,0,0,1,.2.2l.7,7,3.2-6.5a.21508.21508,0,0,1,.2-.2h1.4c.1,0,.1.1.2.2l.8,6.5,3.2-7c0-.1.1-.2.3-.2h1.2c.1,0,.1,0,.1.1a.30972.30972,0,0,1-.1.2l-4.2,8.6c-.1.1-.1.2-.3.2H31.6a.21508.21508,0,0,1-.2-.2l-.8-6.6-3.1,6.6c-.1.1-.2.2-.3.2H25.9a.21508.21508,0,0,1-.2-.2Z"/>
    <path d="M38,23.6a5.36742,5.36742,0,0,1,1.5-3.8,4.91792,4.91792,0,0,1,3.8-1.6A3.6927,3.6927,0,0,1,46,19.3,4.06336,4.06336,0,0,1,47,22a2.76856,2.76856,0,0,1-.1.9l-.1.3a.21508.21508,0,0,1-.2.2h-7v.5a2.4447,2.4447,0,0,0,.6,1.8,2.481,2.481,0,0,0,1.8.7,3.2601,3.2601,0,0,0,2.9-1.6c.1-.1.2-.2.3-.2h1.2c.1,0,.1,0,.1.1a.30971.30971,0,0,1-.1.2,4.81549,4.81549,0,0,1-4.6,2.8,3.387,3.387,0,0,1-2.7-1.1A4.74883,4.74883,0,0,1,38,23.6Zm1.8-1.5h5.7a2.4447,2.4447,0,0,0-.6-1.8,2.4447,2.4447,0,0,0-1.8-.6,3.0771,3.0771,0,0,0-1.9.6A3.67733,3.67733,0,0,0,39.8,22.1Z"/>
    <path d="M48.6,27.3l1.7-8.7a.21508.21508,0,0,1,.2-.2h1.1c.1,0,.1.1.1.2l-.2.9a3.93469,3.93469,0,0,1,2.9-1.3,3.194,3.194,0,0,1,1.4.3c.1.1.2.1.2.2v.1L55.8,20a.21508.21508,0,0,1-.2.2c-.1,0-.1,0-.2-.1a3.31974,3.31974,0,0,0-1.6-.5,2.68847,2.68847,0,0,0-1.8.8,3.47733,3.47733,0,0,0-1,2l-1,4.9a.21508.21508,0,0,1-.2.2H48.7C48.6,27.5,48.6,27.4,48.6,27.3Z"/>
    <path d="M56.5,23.6A5.36742,5.36742,0,0,1,58,19.8a4.91792,4.91792,0,0,1,3.8-1.6,3.6927,3.6927,0,0,1,2.7,1.1,4.06336,4.06336,0,0,1,1,2.7,2.76856,2.76856,0,0,1-.1.9l-.1.3a.21508.21508,0,0,1-.2.2h-7v.5a2.44474,2.44474,0,0,0,.6,1.8,2.48105,2.48105,0,0,0,1.8.7,3.26013,3.26013,0,0,0,2.9-1.6c.1-.1.2-.2.3-.2h1.2c.1,0,.1,0,.1.1a.30971.30971,0,0,1-.1.2,4.81549,4.81549,0,0,1-4.6,2.8,3.387,3.387,0,0,1-2.7-1.1A4.74883,4.74883,0,0,1,56.5,23.6Zm1.8-1.5H64a2.4447,2.4447,0,0,0-.6-1.8,2.4447,2.4447,0,0,0-1.8-.6,3.0771,3.0771,0,0,0-1.9.6A3.67733,3.67733,0,0,0,58.3,22.1Z"/>
    <path d="M67,23.9a6.60019,6.60019,0,0,1,.6-2.7,6.84459,6.84459,0,0,1,1.7-2.1,4.30021,4.30021,0,0,1,2.7-.8,3.42406,3.42406,0,0,1,2.7,1.2l.9-4.4a.21508.21508,0,0,1,.2-.2h1.1c.1,0,.1.1.1.2L74.6,27.3a.21508.21508,0,0,1-.2.2H73.3c-.1,0-.1-.1-.1-.2l.2-.8a3.69134,3.69134,0,0,1-2.8,1.1,3.17362,3.17362,0,0,1-2.5-1A3.34349,3.34349,0,0,1,67,23.9Zm1.5,0a2.79194,2.79194,0,0,0,.6,1.8,1.8648,1.8648,0,0,0,1.6.7,3.22493,3.22493,0,0,0,2.6-1.2,4.27135,4.27135,0,0,0,1-2.9,2.70715,2.70715,0,0,0-.6-1.9,2.06,2.06,0,0,0-1.7-.7A2.76449,2.76449,0,0,0,69.5,21,4.83926,4.83926,0,0,0,68.5,23.9Z"/>
    <path d="M82.1,27.3l2.4-12.2a.21508.21508,0,0,1,.2-.2h1.1c.1,0,.1.1.1.2L85,19.4a3.91337,3.91337,0,0,1,2.9-1.1,3.31684,3.31684,0,0,1,2.5,1,3.61972,3.61972,0,0,1,1,2.7A6.08521,6.08521,0,0,1,90,26a4.57319,4.57319,0,0,1-3.7,1.6,4.14555,4.14555,0,0,1-1.6-.3,2.012,2.012,0,0,1-1.1-.9l-.2.9a.21508.21508,0,0,1-.2.2H82.1C82.2,27.5,82.1,27.4,82.1,27.3Zm2.1-3.5a2.88319,2.88319,0,0,0,.6,1.9,1.98969,1.98969,0,0,0,1.6.7A3.22491,3.22491,0,0,0,89,25.2a4.2713,4.2713,0,0,0,1-2.9,2.88319,2.88319,0,0,0-.6-1.9,1.93963,1.93963,0,0,0-1.7-.7A3.17207,3.17207,0,0,0,85.1,21,4.099,4.099,0,0,0,84.2,23.8Z"/>
    <path d="M91.6,30.8v-.1l.2-1a.21507.21507,0,0,1,.2-.2,1.09453,1.09453,0,0,0,.4.2,1.8839,1.8839,0,0,0,.8.2c.9,0,1.7-.8,2.4-2.2l-1.9-8.9v-.1c0-.1.1-.1.2-.1h1.2a.21508.21508,0,0,1,.2.2l1.3,7,3.6-7c0-.1.1-.2.3-.2h1.3c.1,0,.1,0,.1.1v.1l-5.2,9.7a6.4695,6.4695,0,0,1-1.6,2.3,3.37877,3.37877,0,0,1-2,.6,2.13259,2.13259,0,0,1-1.2-.3C91.6,30.9,91.6,30.8,91.6,30.8Z"/>
  </g>
</svg>
